<svg xmlns="http://www.w3.org/2000/svg" viewBox="0 0 24 24" role="img" aria-labelledby="title">
  <title>Google</title>
  <path fill="#4285F4" d="M23.52 10.92H12.48V14.2H20.32C20.1 15.98 19.5 17.36 18.54 18.34C17.84 19.04 17.06 19.58 16.240000000000002 19.96C15.14 20.48 13.9 20.74 12.48 20.74C10.9 20.74 9.44 20.34 8.1 19.54C6.8 18.78 5.78 17.740000000000002 5.04 16.42C4.26 15.08 3.88 13.6 3.88 12.02C3.88 10.44 4.26 8.959999999999999 5.04 7.600000000000001C5.78 6.300000000000001 6.8 5.259999999999998 8.1 4.48C9.44 3.6999999999999993 10.9 3.3000000000000007 12.48 3.3000000000000007C13.700000000000001 3.3000000000000007 14.84 3.5199999999999996 15.88 3.9800000000000004C16.78 4.359999999999999 17.62 4.919999999999998 18.38 5.640000000000001L20.7 3.34C19.64 2.3000000000000007 18.48 1.5 17.22 0.9600000000000009C15.780000000000001 0.3200000000000003 14.200000000000001 0.0 12.48 0.0C10.86 0.0 9.28 0.3200000000000003 7.78 0.9400000000000013C6.32 1.5599999999999987 5.04 2.419999999999998 3.92 3.5199999999999996C2.7800000000000002 4.620000000000001 1.9000000000000001 5.899999999999999 1.28 7.34C0.62 8.82 0.3 10.379999999999999 0.3 12.0C0.3 13.62 0.62 15.18 1.28 16.66C1.9000000000000001 18.1 2.7800000000000002 19.38 3.92 20.48C5.04 21.58 6.32 22.44 7.78 23.06C9.28 23.68 10.86 24.0 12.48 24.0C14.24 24.0 15.82 23.72 17.22 23.14C18.56 22.58 19.78 21.74 20.86 20.64C21.86 19.64 22.6 18.4 23.080000000000002 16.92C23.5 15.68 23.7 14.36 23.7 12.98C23.7 12.16 23.64 11.48 23.52 10.92Z"/>
</svg>
