<svg xmlns="http://www.w3.org/2000/svg" viewBox="0 0 24 24" role="img" aria-labelledby="title">
  <title>Meta</title>
  <path fill="#0467DF" d="M6.92 4.02C5.96 4.02 5.04 4.32 4.18 4.899999999999999C3.38 5.440000000000001 2.66 6.18 2.04 7.140000000000001C1.3800000000000001 8.16 0.88 9.32 0.52 10.6C0.18 11.86 0.0 13.14 0.0 14.44C0.0 15.16 0.08 15.82 0.22 16.42C0.28 16.72 0.38 17.0 0.48 17.259999999999998C0.58 17.54 0.7000000000000001 17.8 0.84 18.04C1.62 19.34 2.82 19.98 4.44 19.98C5.2 19.96 5.88 19.78 6.5 19.4C7.12 19.02 7.74 18.4 8.4 17.52C8.78 17.02 9.14 16.5 9.46 15.98C9.78 15.459999999999999 10.32 14.54 11.06 13.2L12.0 11.54L14.34 15.44C14.74 16.1 15.14 16.7 15.540000000000001 17.259999999999998C16.0 17.9 16.44 18.4 16.82 18.759999999999998C17.32 19.22 17.82 19.54 18.34 19.740000000000002C18.78 19.9 19.3 19.98 19.88 19.98C20.84 19.98 21.66 19.7 22.32 19.12C22.66 18.86 22.92 18.54 23.14 18.16C23.72 17.16 24.0 15.9 24.0 14.4C24.0 13.02 23.82 11.7 23.48 10.44C23.14 9.14 22.62 7.98 21.92 6.960000000000001C21.28 6.02 20.56 5.280000000000001 19.740000000000002 4.780000000000001C18.92 4.280000000000001 18.080000000000002 4.02 17.2 4.02C16.16 4.02 15.14 4.460000000000001 14.14 5.34C13.58 5.84 12.98 6.52 12.32 7.379999999999999C11.66 6.52 11.0 5.84 10.36 5.34C9.8 4.879999999999999 9.22 4.539999999999999 8.620000000000001 4.32C8.08 4.120000000000001 7.5200000000000005 4.02 6.92 4.02ZM17.080000000000002 6.079999999999998C17.64 6.079999999999998 18.18 6.259999999999998 18.7 6.599999999999998C19.2 6.960000000000001 19.66 7.460000000000001 20.06 8.08C20.6 8.92 21.02 9.94 21.32 11.12C21.580000000000002 12.2 21.72 13.32 21.72 14.48C21.72 15.36 21.6 16.04 21.34 16.52C21.04 17.1 20.56 17.38 19.88 17.38C19.580000000000002 17.38 19.3 17.3 19.06 17.16C18.8 17.02 18.52 16.759999999999998 18.22 16.38C17.68 15.74 16.740000000000002 14.28 15.38 12.02L14.76 11.0C14.36 10.32 13.94 9.66 13.5 9.02L13.72 8.68C14.3 7.800000000000001 14.86 7.16 15.36 6.759999999999998C15.9 6.300000000000001 16.48 6.079999999999998 17.080000000000002 6.079999999999998ZM6.88 6.640000000000001C7.44 6.640000000000001 7.96 6.800000000000001 8.46 7.120000000000001C8.76 7.32 9.120000000000001 7.640000000000001 9.540000000000001 8.08C9.88 8.44 10.28 8.959999999999999 10.78 9.66L9.76 11.219999999999999L9.02 12.4C8.08 13.9 7.38 14.94 6.92 15.56C6.54 16.08 6.2 16.48 5.9 16.759999999999998C5.64 17.02 5.38 17.18 5.12 17.28C4.94 17.34 4.7 17.38 4.44 17.38C4.16 17.38 3.9 17.32 3.66 17.18C3.42 17.04 3.22 16.84 3.06 16.58C2.92 16.36 2.8000000000000003 16.08 2.72 15.74C2.64 15.379999999999999 2.6 14.98 2.6 14.54C2.6 13.44 2.74 12.34 3.04 11.24C3.34 10.16 3.74 9.24 4.26 8.459999999999999C4.74 7.719999999999999 5.24 7.219999999999999 5.78 6.919999999999998C6.12 6.739999999999998 6.5 6.640000000000001 6.88 6.640000000000001Z"/>
</svg>
