<svg xmlns="http://www.w3.org/2000/svg" viewBox="0 0 24 24" role="img" aria-labelledby="title">
  <title>NVIDIA</title>
  <path fill="#76B900" d="M8.94 8.799999999999999V7.359999999999999C9.08 7.359999999999999 9.24 7.359999999999999 9.38 7.359999999999999C10.120000000000001 7.34 10.84 7.440000000000001 11.56 7.66C12.16 7.84 12.76 8.12 13.36 8.48C13.82 8.78 14.280000000000001 9.12 14.700000000000001 9.5C15.02 9.78 15.3 10.06 15.56 10.36L15.860000000000001 10.719999999999999L15.56 11.12C15.3 11.459999999999999 15.0 11.78 14.700000000000001 12.08C14.280000000000001 12.5 13.84 12.879999999999999 13.42 13.22C12.88 13.64 12.36 13.959999999999999 11.86 14.18C11.24 14.44 10.66 14.58 10.120000000000001 14.58C9.72 14.58 9.34 14.52 8.96 14.379999999999999V10.04C9.42 10.1 9.8 10.2 10.08 10.36C10.36 10.52 10.620000000000001 10.76 10.84 11.06C10.98 11.26 11.22 11.62 11.540000000000001 12.16L11.700000000000001 12.42L13.74 10.719999999999999L13.48 10.4C13.24 10.16 12.98 9.94 12.68 9.74C12.280000000000001 9.459999999999999 11.86 9.24 11.42 9.06C10.88 8.86 10.32 8.76 9.74 8.76C9.48 8.76 9.200000000000001 8.78 8.94 8.799999999999999ZM24.0 4.059999999999999H8.94V6.199999999999999L9.38 6.18C10.4 6.140000000000001 11.4 6.259999999999998 12.4 6.559999999999999C13.26 6.82 14.08 7.18 14.9 7.66C15.56 8.04 16.18 8.5 16.78 9.02C17.2 9.379999999999999 17.6 9.76 17.96 10.16L18.38 10.64L17.92 11.16C17.54 11.58 17.12 12.0 16.68 12.4C16.06 12.94 15.44 13.44 14.82 13.86C14.040000000000001 14.4 13.3 14.799999999999999 12.56 15.1C11.68 15.44 10.84 15.6 10.06 15.6C9.700000000000001 15.6 9.34 15.58 8.96 15.52V16.84C9.3 16.88 9.6 16.9 9.86 16.9C11.120000000000001 16.9 12.32 16.7 13.5 16.28C14.52 15.94 15.56 15.4 16.62 14.7C17.44 14.16 18.400000000000002 13.42 19.46 12.5C19.6 12.6 20.0 12.84 20.68 13.22C21.54 13.68 22.06 14.0 22.2 14.14C21.34 14.84 20.16 15.52 18.62 16.16C17.2 16.740000000000002 15.68 17.22 14.08 17.58C12.48 17.939999999999998 11.1 18.12 9.94 18.12C9.6 18.12 9.28 18.1 8.96 18.08V19.939999999999998H24.0V4.059999999999999ZM8.94 14.379999999999999V15.52C8.26 15.4 7.640000000000001 15.16 7.0600000000000005 14.799999999999999C6.5600000000000005 14.5 6.12 14.12 5.72 13.66C5.4 13.299999999999999 5.12 12.9 4.86 12.44C4.68 12.12 4.54 11.799999999999999 4.4 11.459999999999999L4.28 11.06L4.6000000000000005 10.76C4.88 10.5 5.18 10.26 5.5200000000000005 10.04C5.98 9.74 6.48 9.48 6.98 9.28C7.62 9.02 8.28 8.86 8.94 8.799999999999999V10.04C8.6 10.0 8.24 10.04 7.86 10.16C7.58 10.26 7.3 10.4 7.0 10.58C6.8 10.719999999999999 6.6000000000000005 10.879999999999999 6.42 11.06L6.2 11.28L6.34 11.66C6.48 11.98 6.62 12.28 6.8 12.58C7.0600000000000005 12.98 7.34 13.32 7.66 13.6C8.040000000000001 13.98 8.48 14.24 8.94 14.379999999999999ZM2.66 11.459999999999999 2.46 10.9C2.54 10.799999999999999 2.62 10.68 2.72 10.56C2.94 10.299999999999999 3.2 10.02 3.5 9.76C3.9 9.379999999999999 4.34 9.06 4.8 8.76C5.38 8.379999999999999 5.98 8.08 6.62 7.859999999999999C7.36 7.600000000000001 8.14 7.419999999999998 8.96 7.359999999999999V6.199999999999999C8.06 6.259999999999998 7.140000000000001 6.48 6.18 6.82C5.36 7.100000000000001 4.54 7.48 3.72 7.940000000000001C3.06 8.32 2.42 8.74 1.76 9.2C1.3 9.54 0.88 9.879999999999999 0.48 10.219999999999999L0.0 10.66L0.12 10.94C0.22 11.2 0.34 11.459999999999999 0.48 11.719999999999999C0.66 12.1 0.88 12.48 1.1 12.84C1.3800000000000001 13.299999999999999 1.68 13.72 2.0 14.14C2.38 14.62 2.8000000000000003 15.06 3.22 15.459999999999999C3.72 15.92 4.22 16.32 4.76 16.66C5.38 17.04 6.0 17.34 6.66 17.58C7.4 17.84 8.16 18.0 8.94 18.08V16.84C8.040000000000001 16.72 7.2 16.439999999999998 6.42 15.98C5.76 15.6 5.14 15.1 4.58 14.48C4.12 13.98 3.72 13.44 3.34 12.82C3.08 12.379999999999999 2.86 11.92 2.66 11.459999999999999Z"/>
</svg>
