<svg xmlns="http://www.w3.org/2000/svg" viewBox="0 0 24 24" role="img" aria-labelledby="title">
  <title>OpenAI</title>
  <path fill="#111111" d="M22.28 9.82C22.54 9.0 22.64 8.18 22.56 7.300000000000001C22.46 6.440000000000001 22.2 5.640000000000001 21.78 4.899999999999999C21.34 4.16 20.78 3.5199999999999996 20.080000000000002 3.0199999999999996C19.38 2.5199999999999996 18.62 2.1799999999999997 17.78 2.0C16.94 1.8200000000000003 16.1 1.8399999999999999 15.26 2.0199999999999996C14.540000000000001 1.1999999999999993 13.66 0.6400000000000006 12.64 0.3000000000000007C11.6 -0.03999999999999915 10.56 -0.10000000000000142 9.5 0.120000000000001C8.44 0.33999999999999986 7.5 0.8200000000000003 6.7 1.5399999999999991C5.88 2.280000000000001 5.32 3.16 4.98 4.18C4.14 4.359999999999999 3.38 4.699999999999999 2.68 5.199999999999999C1.98 5.699999999999999 1.4000000000000001 6.34 0.98 7.079999999999998C0.54 7.82 0.28 8.62 0.2 9.48C0.1 10.34 0.2 11.16 0.46 11.98C0.72 12.799999999999999 1.1400000000000001 13.54 1.72 14.18C1.46 15.0 1.36 15.84 1.46 16.68C1.54 17.54 1.8 18.36 2.24 19.1C2.66 19.84 3.22 20.46 3.92 20.96C4.62 21.46 5.38 21.8 6.22 21.98C7.0600000000000005 22.16 7.9 22.16 8.76 21.98C9.32 22.64 10.0 23.14 10.78 23.48C11.56 23.82 12.4 24.0 13.26 24.0C14.120000000000001 24.0 14.96 23.82 15.74 23.46C16.52 23.12 17.18 22.62 17.78 21.98C18.36 21.36 18.78 20.62 19.04 19.8C19.88 19.62 20.64 19.28 21.34 18.78C22.04 18.28 22.6 17.64 23.04 16.9C23.46 16.16 23.72 15.36 23.82 14.5C23.900000000000002 13.64 23.8 12.82 23.54 12.0C23.28 11.18 22.86 10.459999999999999 22.28 9.82ZM13.26 22.42C12.74 22.44 12.24 22.34 11.74 22.16C11.24 21.98 10.78 21.72 10.38 21.38L15.3 18.54C15.42 18.48 15.52 18.38 15.6 18.259999999999998C15.66 18.14 15.700000000000001 18.0 15.700000000000001 17.86V11.14L17.72 12.299999999999999C17.740000000000002 12.32 17.740000000000002 12.34 17.76 12.36V17.939999999999998C17.76 18.759999999999998 17.56 19.5 17.16 20.18C16.740000000000002 20.88 16.2 21.42 15.52 21.82C14.82 22.22 14.08 22.42 13.26 22.42ZM3.6 18.3C3.34 17.84 3.16 17.36 3.06 16.84C2.96 16.32 2.96 15.8 3.06 15.299999999999999L7.98 18.14C8.120000000000001 18.2 8.24 18.240000000000002 8.38 18.240000000000002C8.52 18.240000000000002 8.64 18.2 8.78 18.14L14.620000000000001 14.76V17.1C14.620000000000001 17.12 14.6 17.14 14.58 17.16L9.74 19.96C9.040000000000001 20.36 8.28 20.56 7.48 20.54C6.68 20.54 5.94 20.34 5.26 19.939999999999998C4.5600000000000005 19.56 4.0200000000000005 19.0 3.6 18.3ZM2.34 7.879999999999999V7.899999999999999C2.6 7.440000000000001 2.94 7.039999999999999 3.36 6.699999999999999C3.7600000000000002 6.359999999999999 4.2 6.099999999999998 4.7 5.919999999999998V11.6C4.7 11.74 4.74 11.86 4.82 11.98C4.88 12.12 4.98 12.22 5.1000000000000005 12.28L10.9 15.64L8.88 16.8C8.86 16.82 8.84 16.82 8.82 16.8L3.98 14.02C3.2800000000000002 13.6 2.74 13.06 2.34 12.36C1.94 11.66 1.74 10.92 1.74 10.12C1.74 9.34 1.94 8.58 2.34 7.879999999999999ZM18.94 11.76 13.1 8.36 15.120000000000001 7.199999999999999C15.14 7.18 15.18 7.18 15.200000000000001 7.199999999999999L20.02 10.0C20.78 10.42 21.36 11.02 21.76 11.799999999999999C22.16 12.58 22.32 13.4 22.26 14.26C22.18 15.12 21.88 15.9 21.36 16.6C20.82 17.3 20.16 17.8 19.34 18.1V12.42C19.34 12.28 19.3 12.14 19.240000000000002 12.02C19.16 11.92 19.06 11.82 18.94 11.76ZM20.94 8.7V8.719999999999999L20.8 8.64L16.04 5.859999999999999C15.92 5.800000000000001 15.780000000000001 5.759999999999998 15.64 5.759999999999998C15.5 5.759999999999998 15.36 5.800000000000001 15.24 5.859999999999999L9.4 9.219999999999999V6.899999999999999C9.4 6.879999999999999 9.42 6.859999999999999 9.44 6.84L14.26 4.039999999999999C15.02 3.620000000000001 15.84 3.419999999999998 16.72 3.4400000000000013C17.580000000000002 3.4800000000000004 18.38 3.759999999999998 19.1 4.239999999999998C19.8 4.739999999999998 20.32 5.399999999999999 20.66 6.199999999999999C21.0 7.02 21.080000000000002 7.84 20.94 8.7ZM8.32 6.140000000000001 8.3 12.86 6.28 11.7C6.26 11.68 6.26 11.66 6.24 11.64V6.079999999999998C6.26 5.199999999999999 6.5 4.399999999999999 6.96 3.66C7.42 2.919999999999998 8.06 2.379999999999999 8.84 2.0C9.620000000000001 1.6400000000000006 10.46 1.5199999999999996 11.32 1.620000000000001C12.18 1.7199999999999989 12.96 2.0599999999999987 13.620000000000001 2.620000000000001L8.700000000000001 5.460000000000001C8.58 5.52 8.48 5.620000000000001 8.42 5.739999999999998C8.36 5.859999999999999 8.32 6.0 8.32 6.140000000000001ZM9.4 13.5V10.5L12.0 9.0L14.620000000000001 10.5V13.5L12.02 15.0L9.4 13.5Z"/>
</svg>
